<?xml version="1.0" encoding="utf-8"?>
<!-- Generator: Adobe Illustrator 16.0.0, SVG Export Plug-In . SVG Version: 6.00 Build 0)  -->
<!DOCTYPE svg PUBLIC "-//W3C//DTD SVG 1.1//EN" "http://www.w3.org/Graphics/SVG/1.1/DTD/svg11.dtd">
<svg version="1.1" id="Layer_1" xmlns="http://www.w3.org/2000/svg" xmlns:xlink="http://www.w3.org/1999/xlink" x="0px" y="0px"
	 width="240.95px" height="68.905px" viewBox="0 0 240.95 68.905" enable-background="new 0 0 240.95 68.905" xml:space="preserve">
<path fill="#EC008C" d="M20.31,39.525c0-2.799-0.029-10.812,9.807-10.812c2.166,0,34.81,0.026,34.899,0.04
	c0,2.547,0.028,10.78-9.799,10.78C53.042,39.533,20.31,39.525,20.31,39.525 M68.827,0H27.741c-7.89,0-15.396,2.219-20.738,8.483
	C2.907,13.286,0,20.555,0,34.455c0,13.898,2.907,21.165,7.003,25.967c5.342,6.266,12.848,8.48,20.738,8.48h41.086
	c0-1.763,0.782-10.352-8.227-10.352h-29.14c-4.836,0-9.354-1.627-12.63-5.037c-4.707-4.887-4.569-12.762-4.603-19.059
	c0.034-6.301-0.104-14.174,4.603-19.062c3.276-3.41,7.794-5.04,12.63-5.04H60.6C69.609,10.353,68.827,1.765,68.827,0
	 M192.409,39.525c0,0,32.729,0.008,34.905,0.008c9.825,0,9.798-8.233,9.798-10.78c-0.09-0.014-32.732-0.04-34.898-0.04
	C192.376,28.713,192.409,36.727,192.409,39.525 M240.933,0h-41.087c-7.893,0-15.399,2.219-20.738,8.483
	c-4.098,4.802-7.015,12.071-7.015,25.971v34.436c2.393,0,3.735,0.003,6.106,0c4.574,0,8.114-1.783,8.114-8.097V34.455
	c0.033-6.301-0.084-14.174,4.618-19.062c3.28-3.41,7.796-5.04,12.632-5.04h29.142C241.715,10.353,240.933,1.765,240.933,0
	 M142.291,2.475c-4.784-2.021-10.513-2.445-15.624-2.461c-14.538-0.031-39.814,0-40.759,0v68.891l6.108-0.015
	c4.577,0,8.111-1.783,8.111-8.097V10.386h26.442c8.33,0,12.348,4.686,12.354,11.77l0.004,38.638c0,6.313,3.538,8.097,8.109,8.097
	l6.109,0.015V18.848C153.145,11.126,149.524,5.536,142.291,2.475"/>
</svg>
