<?xml version="1.0" encoding="utf-8"?>
<!-- Generator: Adobe Illustrator 16.0.0, SVG Export Plug-In . SVG Version: 6.00 Build 0)  -->
<!DOCTYPE svg PUBLIC "-//W3C//DTD SVG 1.1//EN" "http://www.w3.org/Graphics/SVG/1.1/DTD/svg11.dtd">
<svg version="1.1" id="Layer_1" xmlns="http://www.w3.org/2000/svg" xmlns:xlink="http://www.w3.org/1999/xlink" x="0px" y="0px"
	 width="234.644px" height="64.226px" viewBox="0 0 234.644 64.226" enable-background="new 0 0 234.644 64.226"
	 xml:space="preserve">
<path fill="#8FB73E" d="M66.716,63.822H52.054c-2.671,0-5.261-0.962-7.294-2.694c-8.586-7.32-22.26-18.98-23.762-20.26
	c-2.214-1.879-4.217-2.284-6.874-2.36V56.3c0,4.153-3.36,7.521-7.519,7.521H0V2.764h6.605c4.159,0,7.519,3.366,7.519,7.521v15.134
	c2.946-0.088,5.24-0.814,7.642-2.732l22.24-17.472c1.974-1.56,4.426-2.406,6.945-2.406h13.688L28.575,31.406L66.716,63.822z
	 M163.958,54.67h-7.946c-1.864,0-3.658-0.786-4.93-2.162c-0.261-0.281-1.145-1.22-1.341-1.44c-3.056,2.386-6.845,3.603-11.243,3.603
	c-9.922,0-14.466-5.871-14.552-11.699c-0.096-6.365,4.107-9.574,7.648-11.473l0.567-0.279l-2.011-2.054
	c-2.213-2.163-3.172-4.674-2.918-7.574c0.51-5.782,5.146-9.671,11.809-9.671s11.315,3.889,11.809,9.671
	c0.386,4.352-1.967,7.811-7.192,10.572l7.229,8.03c0,0,1.487-1.899,2.648-6.706c0.458-1.907,2.192-3.237,4.152-3.237h4.848
	l-0.226,1.201c-1.131,6.124-3.222,10.854-6.387,14.456c1.932,2.151,3.854,4.27,5.835,6.403L163.958,54.67z M135.073,21.636
	c-0.183,1.984,0.848,3.633,3.969,6.418c3.122-2.785,4.152-4.434,3.97-6.418c-0.195-1.943-1.51-3.86-3.97-3.86
	S135.268,19.693,135.073,21.636 M139.68,47.898c2.178,0,4.261-0.774,5.618-2.053c-2.642-2.542-6.091-6.356-9.405-10.041
	c-2.157,1.55-3.217,3.449-3.181,5.644C132.763,45.181,135.703,47.898,139.68,47.898 M92.844,13.629h23.27
	c4.325,0,7.831-3.502,7.831-7.826V2.764H89.491c-7.925,0.11-13.87,2.632-18.182,7.688c-2.953,3.472-6.574,10.631-6.574,22.839
	s3.621,19.365,6.574,22.846c4.312,5.05,10.257,7.57,18.182,7.684h34.454v-3.045c0-4.312-3.506-7.833-7.831-7.833h-23.27
	c-4.833,0-7.708-1.276-10.371-3.939c-3.702-3.709-3.854-10.66-3.876-15.712c0.022-5.056,0.174-12.009,3.876-15.71
	C85.136,14.913,88.011,13.629,92.844,13.629 M234.644,62.518l-3.985,1.184c-3.926,0.95-6.676,0.376-9.631-1.85
	c-0.108-0.083-11.343-8.589-16.293-11.177c-3.63-1.896-7.222-2.854-10.7-2.854c-8.652,0-14.16,5.679-17.76,11.77
	c-3.098,5.246-6.088,5.062-10.023,4.111l-3.97-1.184L198.332,0L234.644,62.518z M194.653,37.923c10.749,0,16.519,5.638,16.918,6.198
	l-13.239-22.862l-10.327,17.888C188.004,39.147,190.4,37.923,194.653,37.923"/>
</svg>
