<svg xmlns="http://www.w3.org/2000/svg" width="121.5" height="57.23" viewBox="0 0 121.5 57.23"><defs><style>.cls-1{fill:#9d9d9c;}</style></defs><g id="레이어_2" data-name="레이어 2"><g id="레이어_1-2" data-name="레이어 1"><path class="cls-1" d="M0,57.23V15.7H15.37c8,0,11.73,3.59,11.73,11.15v7.5c0,7.56-3.75,11.16-11.73,11.16H7.82V57.23ZM19.28,27.16c0-3.44-1.46-4.69-4.37-4.69H7.82V38.73h7.09c2.91,0,4.37-1.25,4.37-4.69Z"/><path class="cls-1" d="M66.2,45.51V26.85C66.2,19.29,70,15.7,77.93,15.7H82.1v6.77H78.4c-2.92,0-4.38,1.25-4.38,4.69V45.51Z"/><path class="cls-1" d="M87.21,45.51V15.7H95V45.51Z"/><path class="cls-1" d="M117.33,45.51c-8,0-11.72-3.6-11.72-11.16V22.47h-5.48V15.7h5.48V7.41h7.81V15.7h8.08v6.77h-8.08V34c0,3.44,1.46,4.69,4.38,4.69h3.7v6.78Z"/><path class="cls-1" d="M91.12,0a4.5,4.5,0,0,0-4.5,4.41c0,.1,0,.2,0,.3v0a4.72,4.72,0,0,0,1.13,2.75c.15.17.32.34.48.5s.77.76,1,1.08a9.45,9.45,0,0,1,.89,1.37c.54,1.06.71,1.27,1,1.84.25-.57.41-.78.95-1.84A9.51,9.51,0,0,1,93,9.07,12.93,12.93,0,0,1,94,8c.16-.16.33-.33.48-.5A4.66,4.66,0,0,0,95.6,4.74V4.41A4.5,4.5,0,0,0,91.12,0Z"/><path class="cls-1" d="M44.11,45.51c-8,0-11.73-3.6-11.73-11.16V15.7H40.2V34c0,3.44,1.46,4.69,4.38,4.69h7.61v-23H60V45.51Z"/></g></g></svg>